<?xml version="1.0" encoding="UTF-8"?><!DOCTYPE svg PUBLIC "-//W3C//DTD SVG 1.1//EN" "http://www.w3.org/Graphics/SVG/1.1/DTD/svg11.dtd"><svg xmlns="http://www.w3.org/2000/svg" xmlns:xlink="http://www.w3.org/1999/xlink"><symbol id="apple-logo" viewBox="0 0 385 469"><path d="M195.343 139.008c-17.7 0-45.097-20.165-73.949-19.436-38.065.486-72.978 22.109-92.617 56.365-39.52 68.756-10.183 170.31 28.367 226.189 18.912 27.211 41.217 57.823 70.797 56.851 28.367-1.214 39.035-18.464 73.463-18.464 34.186 0 43.884 18.464 73.948 17.736 30.549-.486 49.945-27.697 68.614-55.151 21.578-31.584 30.549-62.196 31.034-63.896-.727-.243-59.401-22.838-60.128-90.865-.485-56.851 46.308-84.062 48.49-85.277-26.67-39.115-67.644-43.488-81.949-44.46-37.337-2.915-68.614 20.408-86.07 20.408zm63.037-57.337C274.14 62.721 284.565 36.24 281.656 10c-22.548.972-49.703 15.063-65.947 34.013-14.548 16.764-27.155 43.732-23.761 69.485 24.973 1.944 50.673-12.876 66.432-31.827z"/></symbol><symbol id="chevron" viewBox="0 0 15 27"><path d="M.54 14.46l11.314 11.314a1.842 1.842 0 1 0 2.606-2.606L4.45 13.157 14.46 3.146A1.843 1.843 0 0 0 11.854.54L.539 11.854c-.36.36-.539.831-.539 1.303s.18.943.54 1.303z"/></symbol><symbol id="close" viewBox="0 0 15.642 15.642"><path fill-rule="evenodd" d="M8.882 7.821l6.541-6.541A.75.75 0 1 0 14.362.219L7.821 6.76 1.28.22A.75.75 0 1 0 .219 1.281L6.76 7.822l-6.54 6.54a.75.75 0 0 0 1.06 1.061l6.541-6.541 6.541 6.541a.75.75 0 1 0 1.06-1.061l-6.54-6.541z"/></symbol><symbol id="shopping-bag" viewBox="0 0 50 48"><path d="M49.692 8.947a1.605 1.605 0 0 0-1.296-.658H12.3c-.07 0-.14.004-.207.013L10.607 4.02a1.606 1.606 0 0 0-.929-.968L2.192.112a1.605 1.605 0 0 0-1.174 2.987l6.8 2.67 8.322 23.99c-.367.128-.678.41-.82.805l-2.406 6.684a1.335 1.335 0 0 0 1.257 1.79h1.236a4.784 4.784 0 0 0-1.236 3.208 4.819 4.819 0 0 0 4.813 4.813 4.819 4.819 0 0 0 4.813-4.813c0-1.234-.47-2.356-1.236-3.208h10.493a4.783 4.783 0 0 0-1.236 3.208 4.818 4.818 0 0 0 4.813 4.813 4.818 4.818 0 0 0 4.813-4.813c0-1.234-.47-2.356-1.236-3.208h1.504a1.337 1.337 0 1 0 0-2.674H16.073l1.49-4.14c.192.081.4.13.618.13h23.53c.697 0 1.314-.451 1.527-1.115l6.684-20.856a1.604 1.604 0 0 0-.231-1.436zM18.984 44.385c-1.18 0-2.139-.959-2.139-2.139 0-1.18.96-2.139 2.14-2.139 1.179 0 2.138.96 2.138 2.14 0 1.18-.96 2.138-2.139 2.138zm17.647 0c-1.18 0-2.139-.959-2.139-2.139 0-1.18.96-2.139 2.14-2.139 1.179 0 2.138.96 2.138 2.14 0 1.18-.96 2.138-2.139 2.138zm8.41-29.278h-8.187v-3.61h9.343l-1.157 3.61zm-2.358 7.353h-5.829v-4.145h7.158l-1.329 4.145zm-16.435 0v-4.145h7.397v4.145h-7.397zm7.397 3.209v3.476h-7.397v-3.476h7.397zm-18.079-7.354h7.473v4.145h-6.035l-1.438-4.145zm10.682-3.208v-3.61h7.397v3.61h-7.397zm-3.209-3.61v3.61h-8.586l-1.252-3.61h9.838zM18.118 25.67h4.921v3.476h-3.715l-1.206-3.476zm18.736 3.476v-3.476h4.801l-1.114 3.476h-3.687z"/></symbol></svg>