<svg width="385" height="469" viewBox="0 0 385 469" fill="none" xmlns="http://www.w3.org/2000/svg">
<g>
<path d="M195.343 139.008C177.643 139.008 150.246 118.843 121.394 119.572C83.3294 120.058 48.4162 141.681 28.7775 175.937C-10.7423 244.693 18.5945 346.247 57.1445 402.126C76.0558 429.337 98.3614 459.949 127.941 458.977C156.308 457.763 166.976 440.513 201.404 440.513C235.59 440.513 245.288 458.977 275.352 458.249C305.901 457.763 325.297 430.552 343.966 403.098C365.544 371.514 374.515 340.902 375 339.202C374.273 338.959 315.599 316.364 314.872 248.337C314.387 191.486 361.18 164.275 363.362 163.06C336.692 123.945 295.718 119.572 281.413 118.6C244.076 115.685 212.799 139.008 195.343 139.008ZM258.38 81.6712C274.14 62.7208 284.565 36.2389 281.656 10C259.108 10.9718 231.953 25.0631 215.709 44.0134C201.161 60.7772 188.554 87.745 191.948 113.498C216.921 115.442 242.621 100.622 258.38 81.6712Z"/>
</g>
</svg>
